<?xml version="1.0" standalone="no"?>
<!DOCTYPE svg PUBLIC "-//W3C//DTD SVG 20010904//EN"
 "http://www.w3.org/TR/2001/REC-SVG-20010904/DTD/svg10.dtd">
<svg version="1.0" xmlns="http://www.w3.org/2000/svg"
 width="150.000000pt" height="150.000000pt" viewBox="0 0 150.000000 150.000000"
 preserveAspectRatio="xMidYMid meet">
<metadata>
Created by potrace 1.11, written by Peter Selinger 2001-2013
</metadata>
<g transform="translate(0.000000,150.000000) scale(0.100000,-0.100000)"
fill="#000000" stroke="none">
<path d="M758 1490 c-9 -6 -40 -15 -69 -20 -29 -6 -63 -17 -75 -25 -38 -25
-95 -130 -103 -191 -9 -63 -18 -74 -83 -98 -29 -11 -61 -33 -85 -61 -63 -72
-88 -99 -118 -125 -26 -23 -49 -54 -100 -134 -18 -27 -20 -48 -20 -171 0 -77
-4 -150 -8 -163 -5 -12 -26 -31 -46 -42 -21 -10 -41 -26 -44 -35 -9 -21 8
-147 23 -176 9 -16 11 -55 7 -136 l-5 -113 734 0 734 0 -2 401 -3 402 -44 13
c-24 7 -55 23 -70 37 -14 13 -40 34 -58 46 -25 17 -33 31 -39 67 -4 30 -19 61
-43 92 -38 48 -60 99 -91 211 -15 55 -26 72 -73 118 -45 43 -62 53 -90 53 -19
0 -64 14 -100 30 -69 31 -101 36 -129 20z"/>
</g>
</svg>
